<svg id="Layer_1" data-name="Layer 1" xmlns="http://www.w3.org/2000/svg" viewBox="0 0 540 252"><defs><style>.cls-1{fill:#444;}</style></defs><title>M.Davis Design</title><path class="cls-1" d="M267.28,87.71c-9.89-92.86-124.58-79.53-145-76s-9.78,16.07-9.78,16.07c5.31,6.38,10.84,9.18,14.88,7.4s30.68-3.78,30.68-3.78C172.11,73.26,168.84,166,168.84,166s-6.8,3.83-8.71,8.42,16.44,22.42,19.55,23.46S278.12,189.47,267.28,87.71ZM192.86,175s0-109.92-9.35-144.35c0,0,61.64,3.27,61.64,68.35C245.14,157.89,192.86,175,192.86,175Z"/><path class="cls-1" d="M352.19,183.5l-10.35-35s5.35-6.42,4.4-9.57-8.57-6-8.57-6-17.61-52.83-22.84-67.1-21.65-13.14-24-12.56-4,7.14-4,11.71-27.37,101.37-29,113.65,7.61,15.51,7.61,15.51,6.19,4.48,10.95,2.19,6.42-21.7,7.38-24.42,5.24-17.55,5.24-17.55c12.61,2.28,32.12-2.28,32.12-2.28s5.71,19.42,10,31.12,11.9,10.94,11.9,10.94,5.71-.38,9.28-2.09S352.19,183.5,352.19,183.5Zm-58.54-48.83,10.95-40.55S315.3,122.68,316,133.24Z"/><path class="cls-1" d="M328.07,70.56v-.14c-.8-8.62,8.77-5.54,12.65-4.95,3.2.49,9.13,1,10.75,5.1,1.92,4.9,14.9,33.17,19.71,58,0,0,10.1-57.11,14.18-68.07s9.85-6.63,9.85-6.63,13.7,3.17,13.7,9.23-3.42,15.05-5,19.33c-15.09,39.65-15.37,102.26-17,106.31a16.59,16.59,0,0,1-4,6.14c-3.68,3.39-8.25,2.62-11.47-1.18a29.07,29.07,0,0,1-3.82-6.47c-8-17.1-12.2-35.78-16.87-54.44a324.46,324.46,0,0,0-9.37-31.53,176.3,176.3,0,0,0-10.81-24.4A17.23,17.23,0,0,1,328.07,70.56Z"/><path class="cls-1" d="M418.36,53.26s-8.13-6.62-7,47.48c.62,30.3,0,60.51,4.72,90.56a12.18,12.18,0,0,0,1.87,5.58c2.72,3.59,16.8,1.5,17-3.7.14-4.09,1.52-125.51,1.52-127.07a10.38,10.38,0,0,0-4-8.37C428.69,54.81,418.36,53.26,418.36,53.26Z"/><path class="cls-1" d="M473.63,53.16S430.51,55,431.21,85.68,476.55,121,476.55,121s39.36,6.47,39.08,16.44-14.6,36-31,36.58-13.07-28.82-22.95-28.64c-2.22,0-5.2.28-6.07,3.2a12.45,12.45,0,0,0-.37,3.35c-.09,6.36.12,12.78,1.72,18.86a48.83,48.83,0,0,0,4.5,11.39c4.58,8.18,11.66,13.39,19.82,14.57,24.2,3.51,59.94-27.53,58.69-54s-26.15-39.17-52.43-41.94-35.74-8.31-35.19-14.6,14.88-17.55,26.7-17.18,16,9.42,23.09,10.35,20.58-7.58,6-17.92S482.53,53.16,473.63,53.16Z"/><path class="cls-1" d="M15.14,197.79s-12.21-1.2-11.38-19.47,1.34-71.87-.84-113-4-44.77-2.17-46,6.69-4.82,11-4.22,9.54,2.81,9.87,6.42a68.12,68.12,0,0,0,2,10.44c.5,1.61,22.42,35.13,34.13,89.13,0,0,13.38-105,13.55-108.6S72.52.46,75.87.66,101-10.58,110,54.06s11.21,95,12,100.77,5.19,26.3,6.36,28.31-2.17,12-10.2,10.44S103.3,191,98.62,162.66,88.25,67.91,88.25,67.91l-9.7,91.74s-1,7.63-.67,11S80,187.76,64.31,189.16s-18.72-25.7-18.72-25.7L28.36,98.9s1.51,46.1,2,60.56S37.22,200.6,15.14,197.79Z"/><path class="cls-1" d="M141.85,169.83c-6.74,0-11.51,2.61-8.4,10.28s8.23,10.86,13.41,10.24,10-5,9.15-9.78S148.58,169.83,141.85,169.83Z"/><path class="cls-1" d="M112.71,251.52v-35H121a13.59,13.59,0,0,1,5.07.91,10.59,10.59,0,0,1,3.93,2.7,12.35,12.35,0,0,1,2.54,4.4,18.46,18.46,0,0,1,.9,6v7a18.46,18.46,0,0,1-.9,6,12.13,12.13,0,0,1-2.55,4.39,10.7,10.7,0,0,1-4,2.68,14.14,14.14,0,0,1-5.2.91Zm2.74-32.44V249h5.32a11.11,11.11,0,0,0,4.2-.75,8.15,8.15,0,0,0,3.12-2.2,9.74,9.74,0,0,0,1.94-3.6,16.64,16.64,0,0,0,.66-4.91v-7.07a16.3,16.3,0,0,0-.67-4.93,9.86,9.86,0,0,0-1.93-3.55A7.89,7.89,0,0,0,125,219.8a10.87,10.87,0,0,0-4.07-.72Z"/><path class="cls-1" d="M191.27,234.75h-13.6V249h15.64v2.55H174.93v-35h18.26v2.6H177.67V232.2h13.6Z"/><path class="cls-1" d="M253.2,242.9a8.09,8.09,0,0,0-.37-2.56,5.24,5.24,0,0,0-1.28-2,9.27,9.27,0,0,0-2.42-1.68,29.38,29.38,0,0,0-3.78-1.54,31.8,31.8,0,0,1-4-1.62,12.62,12.62,0,0,1-3-2,8.09,8.09,0,0,1-1.93-2.72,9.86,9.86,0,0,1,.06-7.32,8.35,8.35,0,0,1,2-2.86,9.36,9.36,0,0,1,3.13-1.85,11.63,11.63,0,0,1,4-.66,10.5,10.5,0,0,1,4.24.82,9.51,9.51,0,0,1,3.2,2.24,9.71,9.71,0,0,1,2,3.33,11.88,11.88,0,0,1,.7,4.1h-2.77a9.69,9.69,0,0,0-.49-3.15,7.27,7.27,0,0,0-1.43-2.5,6.44,6.44,0,0,0-2.31-1.65,7.92,7.92,0,0,0-3.15-.59,8.78,8.78,0,0,0-3.12.51,6.29,6.29,0,0,0-2.23,1.38,5.83,5.83,0,0,0-1.35,2,6.77,6.77,0,0,0-.46,2.49,6.43,6.43,0,0,0,.4,2.3,5.36,5.36,0,0,0,1.31,1.94,10.32,10.32,0,0,0,2.39,1.67,23.23,23.23,0,0,0,3.62,1.48,29.09,29.09,0,0,1,4.18,1.7,12.13,12.13,0,0,1,3.06,2.15,8.17,8.17,0,0,1,1.88,2.85,10.19,10.19,0,0,1,.64,3.74,9.31,9.31,0,0,1-.76,3.84,8.23,8.23,0,0,1-2.11,2.88,9.33,9.33,0,0,1-3.2,1.8,12.64,12.64,0,0,1-4.07.63,13.47,13.47,0,0,1-3.95-.6,10.4,10.4,0,0,1-3.54-1.86,9.58,9.58,0,0,1-2.55-3.25,10.64,10.64,0,0,1-1-4.78h2.74a8.52,8.52,0,0,0,.73,3.73,6.94,6.94,0,0,0,1.91,2.45,7.38,7.38,0,0,0,2.66,1.35,11.11,11.11,0,0,0,3,.41,9.29,9.29,0,0,0,3-.47,6.66,6.66,0,0,0,2.31-1.32,5.82,5.82,0,0,0,1.47-2.06A6.76,6.76,0,0,0,253.2,242.9Z"/><path class="cls-1" d="M300.26,251.52h-2.74v-35h2.74Z"/><path class="cls-1" d="M363.73,247.45a14.38,14.38,0,0,1-1.18,1.3,9.83,9.83,0,0,1-2,1.49,13.59,13.59,0,0,1-3,1.24,14.53,14.53,0,0,1-4.09.52,12.24,12.24,0,0,1-4.78-.9,9.76,9.76,0,0,1-3.68-2.68,12.56,12.56,0,0,1-2.37-4.42,20.06,20.06,0,0,1-.84-6.1v-8a21.45,21.45,0,0,1,.76-6,12,12,0,0,1,2.2-4.34,9.2,9.2,0,0,1,3.54-2.64A12.08,12.08,0,0,1,353,216a12.77,12.77,0,0,1,4.39.7,8.86,8.86,0,0,1,3.25,2,9.28,9.28,0,0,1,2.09,3.26,14.79,14.79,0,0,1,.93,4.39H361a14,14,0,0,0-.71-3.25,7,7,0,0,0-1.47-2.45,6.15,6.15,0,0,0-2.36-1.54,9.55,9.55,0,0,0-3.36-.53,7.49,7.49,0,0,0-6.41,2.85q-2.13,2.85-2.13,8.36v8.09a18,18,0,0,0,.63,5,10.41,10.41,0,0,0,1.78,3.61,7.47,7.47,0,0,0,2.8,2.2,8.92,8.92,0,0,0,3.72.75,11.54,11.54,0,0,0,2.94-.34,10.93,10.93,0,0,0,2.19-.81,7.75,7.75,0,0,0,1.49-1q.58-.49.89-.81v-9.12h-7.68v-2.57h10.44Z"/><path class="cls-1" d="M427.29,251.52h-2.74L408,221.68v29.84h-2.77v-35H408l16.56,29.89V216.48h2.72Z"/></svg>